<?xml version="1.0" encoding="UTF-8"?><svg id="Layer_1" xmlns="http://www.w3.org/2000/svg" viewBox="0 0 400 400"><defs><style>.cls-1{fill:#30afb9;}</style></defs><path class="cls-1" d="M182.16,345.8l-.03,.05c-9.3,9.28-24.39,9.28-33.73,0l-33.15-33.15-33.88-33.88c-.17-.16-.35-.35-.51-.53l67.57,67.5c9.3,9.3,24.41,9.3,33.73,0Z"/><path class="cls-1" d="M249.7,278.24c.17-.18,.31-.35,.46-.55"/><path class="cls-1" d="M337.69,190.17c-10.76,10.24-60.78,51.82-114.72-2.12l-1.54-1.54-40.76-40.74,36.51-36.54,55.09-55.08c9.3-9.28,24.39-9.28,33.73,0l67.04,67.02c9.28,9.32,9.28,24.43,0,33.71l-35.35,35.28Z"/><path class="cls-1" d="M321.88,205.97l-56.3,56.32-15.42,15.41c-.15,.2-.3,.36-.46,.55-.15,.16-.31,.33-.48,.5l-67.06,67.06c-9.32,9.3-24.43,9.3-33.73,0l-67.57-67.5-38.15-38.13-15.75-15.77c-9.28-9.3-9.28-24.39,0-33.73L93.99,123.64c9.33-9.28,24.43-9.28,33.73,0l37.55,37.53,40.76,40.74,1.54,1.56c53.3,53.29,102.79,13.32,114.32,2.5Z"/><path class="cls-1" d="M265.58,262.29c-.08,.08-.15,.18-.23,.28-.08,.1-.17,.18-.25,.27-.17,.18-.33,.36-.51,.53l-15.37,15.37c.17-.17,.33-.33,.48-.5,.17-.18,.31-.35,.46-.55l15.42-15.41Z"/></svg>