<?xml version="1.0" encoding="UTF-8"?><svg id="Layer_1" xmlns="http://www.w3.org/2000/svg" xmlns:xlink="http://www.w3.org/1999/xlink" viewBox="0 0 400 400"><defs><style>.cls-1{fill:url(#linear-gradient);}.cls-2{fill:#057ea8;}</style><linearGradient id="linear-gradient" x1="212.35" y1="346.38" x2="139.21" y2="92.83" gradientUnits="userSpaceOnUse"><stop offset="0" stop-color="#057ea8"/><stop offset="1" stop-color="#71f9d3"/></linearGradient></defs><path class="cls-2" d="M272.28,54.16l-55.1,55.07L81.37,245.11c-9.29,9.29-9.29,24.4,0,33.72l33.88,33.87,33.15,33.15c9.32,9.29,24.43,9.29,33.72,0l190.91-190.94c9.29-9.29,9.29-24.4,0-33.72l-67.04-67.02c-9.32-9.29-24.43-9.29-33.72,0Z"/><path class="cls-1" d="M93.99,123.64L26.97,190.67c-9.29,9.32-9.29,24.43,0,33.72l15.75,15.78,105.73,105.63c9.29,9.29,24.4,9.29,33.72,0l67.03-67.03c.35-.35,.7-.7,.98-1.07l74.23-74.23s-55.92,60.91-116.83,0l-1.55-1.55L127.71,123.64c-9.29-9.29-24.4-9.29-33.72,0Z"/></svg>