<?xml version="1.0" encoding="UTF-8"?><svg id="Layer_1" xmlns="http://www.w3.org/2000/svg" viewBox="0 0 600 400"><defs><style>.cls-1{fill:#30afb9;}</style></defs><g><path class="cls-1" d="M259.3,250.84h-2.58v12.93h-15.69v-120.67h16.03v48.27h2.59c4.14-7.24,12.58-14.65,29.48-14.65,21.72,0,39.48,16.2,39.48,43.44v2.41c0,27.41-17.93,43.62-39.48,43.62-16.89,0-25.34-7.41-29.82-15.35Zm53.1-28.62v-1.55c0-18.96-11.55-29.82-27.76-29.82s-27.75,10.86-27.75,29.82v1.55c0,18.96,11.72,29.82,27.75,29.82s27.76-10.86,27.76-29.82Z"/><path class="cls-1" d="M341.34,155.51c0-6.72,5-11.38,11.55-11.38s11.38,4.65,11.38,11.38-4.83,11.38-11.38,11.38-11.55-4.66-11.55-11.38Zm3.45,108.26v-84.65h16.03v84.65h-16.03Z"/><path class="cls-1" d="M381.15,263.78v-84.65h15.69v13.27h2.58c3.45-7.41,11.21-14.83,27.93-14.83,18.96,0,33.27,12.93,33.27,35.17v51.03h-16.03v-49.82c0-15.69-8.27-22.58-21.72-22.58-15.34,0-25.69,10.35-25.69,29.65v42.76h-16.03Z"/><path class="cls-1" d="M480.09,263.78v-120.67h16.03v69.65h2.59l35.68-33.62h21.72l-44.65,41.03,46.03,43.62h-21.55l-37.23-35.86h-2.59v35.86h-16.03Z"/></g><g><path class="cls-1" d="M120.04,269.72l-.02,.02c-4.45,4.44-11.66,4.44-16.13,0l-15.85-15.85-16.2-16.2c-.08-.08-.17-.17-.25-.25l32.31,32.28c4.45,4.45,11.67,4.45,16.13,0Z"/><path class="cls-1" d="M152.34,237.41c.08-.09,.15-.17,.22-.26"/><path class="cls-1" d="M194.41,195.3c-5.14,4.9-29.07,24.78-54.86-1.01l-.74-.74-19.49-19.48,17.46-17.47,26.34-26.34c4.45-4.44,11.66-4.44,16.13,0l32.06,32.05c4.44,4.46,4.44,11.68,0,16.12l-16.9,16.87Z"/><path class="cls-1" d="M186.85,202.86l-26.92,26.93-7.38,7.37c-.07,.1-.14,.17-.22,.26-.07,.08-.15,.16-.23,.24l-32.07,32.07c-4.46,4.45-11.68,4.45-16.13,0l-32.31-32.28-18.24-18.23-7.53-7.54c-4.44-4.45-4.44-11.66,0-16.13l32.05-32.05c4.46-4.44,11.68-4.44,16.13,0l17.96,17.95,19.49,19.48,.74,.74c25.49,25.48,49.15,6.37,54.67,1.2Z"/><path class="cls-1" d="M159.93,229.79s-.07,.09-.11,.13c-.04,.05-.08,.09-.12,.13-.08,.09-.16,.17-.25,.25l-7.35,7.35c.08-.08,.16-.16,.23-.24,.08-.09,.15-.17,.22-.26l7.38-7.37Z"/></g></svg>