<?xml version="1.0" encoding="UTF-8"?><svg id="Layer_1" xmlns="http://www.w3.org/2000/svg" xmlns:xlink="http://www.w3.org/1999/xlink" viewBox="0 0 600 400"><defs><style>.cls-1{fill:url(#linear-gradient);}.cls-2{fill:#057ea8;}.cls-3{fill:#264054;}</style><linearGradient id="linear-gradient" x1="136.55" y1="271.57" x2="100.79" y2="147.6" gradientUnits="userSpaceOnUse"><stop offset="0" stop-color="#057ea8"/><stop offset="1" stop-color="#71f9d3"/></linearGradient></defs><g><path class="cls-2" d="M165.85,128.69l-26.94,26.93-66.41,66.43c-4.54,4.54-4.54,11.93,0,16.49l16.57,16.56,16.21,16.21c4.56,4.54,11.94,4.54,16.49,0l93.35-93.36c4.54-4.54,4.54-11.93,0-16.49l-32.78-32.77c-4.56-4.54-11.94-4.54-16.49,0Z"/><path class="cls-1" d="M78.68,162.66l-32.77,32.77c-4.54,4.56-4.54,11.94,0,16.49l7.7,7.72,51.7,51.65c4.54,4.54,11.93,4.54,16.49,0l32.77-32.77c.17-.17,.34-.34,.48-.53l36.3-36.3s-27.34,29.78-57.13,0l-.76-.76-38.29-38.27c-4.54-4.54-11.93-4.54-16.49,0Z"/></g><g><path class="cls-3" d="M268.29,251.98h-2.51v11.37h-15.22v-126.46h15.55v56.24h2.51c4.01-7.02,12.2-14.21,28.59-14.21,21.07,0,38.29,15.71,38.29,42.13v2.34c0,26.58-17.39,42.3-38.29,42.3-16.38,0-24.58-6.02-28.92-13.71Zm51.5-28.93v-1.5c0-18.39-11.2-28.92-26.92-28.92s-26.92,10.54-26.92,28.92v1.5c0,18.39,11.37,28.92,26.92,28.92s26.92-10.53,26.92-28.92Z"/><g><path class="cls-3" d="M347.59,159.07c0-6.68,4.97-11.31,11.48-11.31s11.31,4.62,11.31,11.31-4.8,11.31-11.31,11.31-11.48-4.63-11.48-11.31Z"/><rect class="cls-3" x="351.21" y="181.25" width="15.55" height="82.09"/></g><path class="cls-3" d="M386.48,263.34v-82.09h15.22v12.87h2.51c3.34-7.19,10.87-14.38,27.09-14.38,18.39,0,32.27,12.54,32.27,34.11v49.49h-15.55v-48.32c0-15.21-8.03-21.9-21.06-21.9-14.88,0-24.91,10.03-24.91,28.76v41.47h-15.55Z"/><path class="cls-3" d="M482.43,263.34v-126.46h15.55v76.97h2.51l34.61-32.61h21.06l-43.3,39.79,44.64,42.3h-20.9l-36.11-34.78h-2.51v34.78h-15.55Z"/></g></svg>