<?xml version="1.0" encoding="UTF-8"?><svg id="Layer_2" xmlns="http://www.w3.org/2000/svg" xmlns:xlink="http://www.w3.org/1999/xlink" viewBox="0 0 564.31 564.31"><defs><style>.cls-1{fill:url(#linear-gradient);}.cls-2{fill:#fff;}</style><linearGradient id="linear-gradient" x1="41.05" y1="25.57" x2="533.48" y2="549.62" gradientUnits="userSpaceOnUse"><stop offset="0" stop-color="#057ea8"/><stop offset="1" stop-color="#71f9d3"/></linearGradient></defs><g id="Layer_1-2"><g><rect class="cls-1" width="564.31" height="564.31" rx="101.6" ry="101.6"/><g><path class="cls-2" d="M465.71,269.07c-14.34,13.66-81.03,69.08-152.93-2.82l-2.05-2.05-54.34-54.32,48.67-48.71,73.44-73.42c12.4-12.38,32.52-12.38,44.96,0l89.37,89.35c12.38,12.42,12.38,32.56,0,44.94l-47.12,47.04Z"/><path class="cls-2" d="M444.64,290.14l-75.05,75.08-20.56,20.54c-.2,.26-.4,.48-.62,.73-.2,.22-.42,.44-.64,.66l-89.39,89.39c-12.42,12.4-32.56,12.4-44.96,0l-90.08-89.99-50.85-50.83-21-21.02c-12.38-12.4-12.38-32.52,0-44.96l89.35-89.35c12.44-12.38,32.56-12.38,44.96,0l50.06,50.04,54.34,54.32,2.05,2.07c71.06,71.04,137.03,17.76,152.4,3.33Z"/></g></g></g></svg>