<?xml version="1.0" encoding="UTF-8"?><svg id="Layer_2" xmlns="http://www.w3.org/2000/svg" xmlns:xlink="http://www.w3.org/1999/xlink" viewBox="0 0 564.31 564.31"><defs><style>.cls-1{fill:url(#linear-gradient);}.cls-2{fill:#fff;}.cls-3{fill:#057ea8;}</style><linearGradient id="linear-gradient" x1="217.99" y1="391.78" x2="476.67" y2="109.39" gradientUnits="userSpaceOnUse"><stop offset="0" stop-color="#057ea8"/><stop offset="1" stop-color="#71f9d3"/></linearGradient></defs><g id="Layer_1-2"><g><rect class="cls-3" width="564.31" height="564.31"/><g><path class="cls-1" d="M378.51,87.74l-73.45,73.42L124,342.28c-12.38,12.39-12.38,32.52,0,44.95l45.17,45.16,44.2,44.19c12.43,12.38,32.57,12.38,44.95,0l254.5-254.55c12.38-12.39,12.38-32.52,0-44.95l-89.37-89.34c-12.43-12.38-32.57-12.38-44.95,0Z"/><path class="cls-2" d="M140.84,180.36l-89.35,89.35c-12.39,12.43-12.39,32.57,0,44.95l20.99,21.03,140.95,140.82c12.39,12.39,32.52,12.39,44.95,0l89.35-89.35c.46-.46,.93-.93,1.31-1.43l98.96-98.96s-74.54,81.21-155.75,0l-2.06-2.06-104.39-104.35c-12.39-12.39-32.52-12.39-44.95,0Z"/></g></g></g></svg>